HIERARCHY
ROOT Hip
{
   OFFSET 0.00000 0.00000 0.00000
   CHANNELS 6 Xposition Yposition Zposition Zrotation Yrotation Xrotation
   JOINT Head
   {
      OFFSET 0.000000 22.568199 0.000000
      CHANNELS 3 Zrotation Yrotation Xrotation
      End Site
      {
         OFFSET 0.000000 13.446300 0.000000
      }
      JOINT LeftShoulder
      {
         OFFSET 7.461870 0.000000 0.000000
         CHANNELS 3 Zrotation Yrotation Xrotation
         JOINT LeftHand
         {
            OFFSET 0.000000 -10.904100 0.000000
            CHANNELS 3 Zrotation Yrotation Xrotation
            End Site
            {
               OFFSET 0.000000 -11.942450 0.000000
            }
         }
      }
      JOINT RightShoulder
      {
         OFFSET -7.952640 0.000000 0.000000
         CHANNELS 3 Zrotation Yrotation Xrotation
         JOINT RghtHand
         {
            OFFSET 0.000000 -13.065350 0.000000
            CHANNELS 3 Zrotation Yrotation Xrotation
            End Site
            {
               OFFSET 0.000000 -8.949760 0.000000
            }
         }
      }
   }
   JOINT LeftHip
   {
      OFFSET 7.895735 0.000000 0.000000
      CHANNELS 3 Zrotation Yrotation Xrotation
      JOINT LeftKnee
      {
         OFFSET 0.000000 -22.256598 0.000000
         CHANNELS 3 Zrotation Yrotation Xrotation
         JOINT LeftFoot
         {
            OFFSET 0.000000 -16.969850 0.000000
            CHANNELS 3 Zrotation Yrotation Xrotation
            End Site
            {
               OFFSET 0.000000 0.000000 11.058950
            }
         }
      }
   }
   JOINT RightHip
   {
      OFFSET -7.895735 0.000000 0.000000
      CHANNELS 3 Zrotation Yrotation Xrotation
      JOINT RightKnee
      {
         OFFSET 0.000000 -20.142851 0.000000
         CHANNELS 3 Zrotation Yrotation Xrotation
         JOINT RightFoot
         {
            OFFSET 0.000000 -17.274800 0.000000
            CHANNELS 3 Zrotation Yrotation Xrotation
            End Site
            {
               OFFSET 0.000000 0.000000 11.108349
            }
         }
      }
   }
}
MOTION
Frames: 24
Frame Time: 0.016670
8.185843 40.497283 -15.426991 139.939019 86.574410 142.562618 -3.135904 20.509253 -26.127482 14.758365 -14.870331 20.034801 -8.981279 -0.547710 13.577322 -34.421309 -9.905614 42.046037 -24.606634 4.596460 42.452136 -13.079785 -58.431701 -0.019473 32.125604 -52.795535 1.094404 0.560001 -49.623787 -17.091123 -9.328044 -46.241409 4.300185 10.422488 -46.233014 0.126887 2.041567 -41.082666 -0.911414
8.176142 40.498971 -15.410867 174.832926 62.558099 177.529389 0.007819 -4.343396 -26.595138 6.883445 -23.305796 23.219650 -11.522293 -2.199248 11.808274 -42.207854 -12.424811 43.291266 -28.317572 5.044500 38.107709 -3.639515 -68.218358 -9.942170 31.042636 -59.733303 -6.956670 1.329617 -56.894380 -18.125061 -21.185148 -54.394141 23.923094 26.501260 -49.938242 -13.969843 3.917054 -49.368215 1.127954
8.163247 40.496473 -15.396726 174.587176 62.253022 177.111887 -0.163745 -4.835882 -26.427037 2.291559 -32.685184 25.502700 -14.450445 -3.455091 9.564206 -46.575159 -17.242942 44.434882 -32.502374 5.744268 34.395617 -3.516734 -68.563761 -10.100822 30.911913 -59.819329 -7.421625 1.347239 -56.997242 -18.044745 -23.020420 -55.110833 25.840667 28.218913 -49.261250 -14.984173 3.775579 -49.574619 0.883251
8.168418 40.493163 -15.387643 174.451993 62.458938 176.721501 -0.287679 -4.570218 -26.097577 -2.693867 -40.871610 28.440800 -16.653258 -4.574435 7.238977 -50.921417 -21.778091 45.906736 -36.118225 5.887999 30.554663 -4.042705 -68.740424 -9.538711 30.711584 -59.794133 -7.335575 1.305021 -56.896121 -17.981791 -24.415582 -55.479543 27.111213 28.864390 -48.817114 -14.905961 3.655486 -49.335498 0.698255
8.154709 40.489106 -15.361643 174.309720 62.554465 176.369117 -0.416466 -4.258663 -25.769120 -7.795974 -47.519381 32.006003 -18.189953 -5.493980 4.926897 -55.161281 -25.958105 47.726336 -39.183593 5.623092 26.849730 -4.347360 -68.901275 -9.195405 30.579734 -59.756553 -7.349437 1.242681 -56.809866 -17.947972 -25.846797 -55.896134 28.422301 29.542651 -48.357985 -14.789627 3.526057 -49.087494 0.511070
8.138245 40.485191 -15.327134 174.183197 62.607242 176.024971 -0.562670 -3.925140 -25.422369 -12.842438 -52.429847 35.951414 -19.146946 -6.180616 2.798522 -59.273345 -29.716773 49.735303 -41.731476 5.083089 23.402209 -4.602338 -69.036239 -8.889629 30.418698 -59.737237 -7.368462 1.189672 -56.739737 -17.907445 -27.392356 -56.309749 29.846018 30.242435 -47.883806 -14.594928 3.386116 -48.821134 0.318730
8.117700 40.476164 -15.284115 174.090621 62.649507 175.685429 -0.686719 -3.500965 -25.038253 -17.550569 -55.888586 39.878070 -19.710507 -6.626787 0.956813 -63.212458 -32.985620 51.916589 -43.725655 4.348146 20.301303 -4.887939 -69.120435 -8.558874 30.233607 -59.742538 -7.310357 1.126905 -56.680741 -17.879712 -29.067393 -56.717017 31.411193 31.019700 -47.367133 -14.365092 3.204088 -48.528853 0.087917
8.089366 40.470952 -15.221354 174.035419 62.641659 175.407427 -0.806668 -3.051984 -24.661796 -21.799807 -58.295917 43.607449 -20.081250 -6.854439 -0.587506 -66.900760 -35.800365 54.185250 -45.260392 3.522382 17.612406 -5.019764 -69.190458 -8.355171 30.073074 -59.763841 -7.299353 1.067532 -56.648332 -17.856633 -30.802097 -57.198921 33.025334 31.670809 -46.882640 -13.967078 3.058514 -48.197230 -0.085953
8.078124 40.461544 -15.169284 173.930644 62.926799 175.013161 -0.927609 -2.316725 -24.158680 -25.613203 -59.924562 47.060987 -20.297628 -6.888201 -1.955858 -70.292393 -38.237598 56.390995 -46.432155 2.679358 15.280656 -5.654715 -69.253972 -7.623668 29.898719 -59.678252 -7.036830 0.961836 -56.468442 -17.849139 -32.635925 -57.563817 34.659949 32.195507 -46.340149 -13.366049 2.866556 -47.731233 -0.301857
8.014248 40.449671 -15.056014 173.981693 62.716655 174.929314 -1.002486 -1.983661 -23.848797 -29.000013 -60.900029 50.240338 -20.377608 -6.744766 -3.173839 -73.369769 -40.239486 58.566939 -47.256347 1.846934 13.333398 -5.225522 -69.168520 -7.994710 29.753475 -59.841917 -7.109108 0.887757 -56.598223 -17.887099 -34.355841 -58.380256 36.345045 32.583797 -45.845886 -12.866382 2.710529 -47.299979 -0.462111
7.972622 40.458493 -14.958054 173.954796 62.820153 174.693126 -1.111962 -1.360688 -23.435994 -32.080794 -61.481162 53.156866 -20.428797 -6.446231 -4.223214 -76.102821 -41.970467 60.623448 -47.800642 1.043187 11.631863 -5.324874 -69.208155 -7.762884 29.673794 -59.807582 -7.029907 0.825113 -56.513364 -17.854488 -36.117528 -59.136283 37.989498 32.651781 -45.294201 -12.150126 2.605773 -46.691709 -0.532462
7.918507 40.456461 -14.837159 173.995176 62.860485 174.559377 -1.172292 -0.802924 -23.048461 -34.840757 -61.826729 55.785676 -20.598968 -6.015228 -5.154830 -78.529711 -43.413884 62.532328 -48.215487 0.308783 10.230910 -5.305380 -69.299871 -7.619734 29.719751 -59.751847 -6.975489 0.730774 -56.432816 -17.864184 -37.871183 -60.004250 39.658773 32.625355 -44.753254 -11.408484 2.438618 -46.086609 -0.679628
7.844709 40.457749 -14.727410 173.936300 62.914191 174.365017 -1.266849 -0.237181 -22.667602 -37.340344 -61.905536 58.153289 -20.750473 -5.466208 -5.934206 -80.682217 -44.701901 64.239384 -48.612823 -0.355429 9.082815 -5.328747 -69.142538 -7.596208 29.609013 -59.848433 -6.740343 0.668554 -56.460403 -17.868543 -39.620677 -60.854807 41.164085 32.387459 -44.287138 -10.432852 2.254361 -45.486379 -0.849622
7.767374 40.459165 -14.593920 173.946641 62.892935 174.280022 -1.277722 0.240908 -22.315951 -39.570455 -61.781957 60.264398 -20.984412 -4.810746 -6.713644 -82.557904 -45.803911 65.763828 -48.915626 -0.964091 8.130771 -5.145928 -69.149675 -7.681336 29.702573 -59.841937 -6.673363 0.602313 -56.436730 -17.868653 -41.289084 -61.792394 42.668041 32.032003 -43.832312 -9.492272 2.071430 -44.904744 -1.013123
7.696256 40.471830 -14.477211 173.877478 62.944223 174.077739 -1.293195 0.762762 -21.947901 -41.582741 -61.517274 62.162091 -21.213106 -4.051462 -7.347131 -84.179793 -46.749045 67.161223 -49.062967 -1.543139 7.349493 -5.168828 -69.024792 -7.633919 29.653082 -59.891689 -6.474541 0.572370 -56.432881 -17.837498 -43.003117 -62.606716 44.159704 31.640725 -43.384050 -8.536674 1.919286 -44.349385 -1.133253
7.618803 40.478205 -14.342599 173.887327 62.893844 173.981024 -1.257956 1.204496 -21.636291 -43.394422 -61.175805 63.830488 -21.594743 -3.222341 -7.876838 -85.611203 -47.563747 68.401701 -49.122779 -2.084665 6.828359 -4.902969 -68.975601 -7.811052 29.682612 -59.927561 -6.457505 0.523622 -56.452200 -17.840207 -44.683866 -63.414085 45.703477 31.276386 -42.937984 -7.643388 1.735750 -43.835051 -1.291070
7.535118 40.482368 -14.201265 173.907804 62.828451 173.905509 -1.196117 1.621998 -21.305520 -45.019235 -60.842212 65.274123 -22.083296 -2.325902 -8.362050 -86.883298 -48.267031 69.488302 -49.248106 -2.587669 6.490236 -4.553261 -68.817591 -8.098381 29.637625 -60.047526 -6.410340 0.492124 -56.543933 -17.845138 -46.363464 -64.176116 47.268437 30.956845 -42.509953 -6.798419 1.557528 -43.372948 -1.439437
7.456921 40.484146 -14.071151 173.898925 62.745765 173.757376 -1.137269 1.982361 -20.909601 -46.487787 -60.561587 66.511528 -22.653465 -1.367404 -8.764226 -87.987091 -48.944388 70.422160 -49.453377 -3.057052 6.253912 -4.342343 -68.725445 -8.246022 29.556626 -60.147336 -6.380246 0.446037 -56.614895 -17.862980 -48.091010 -64.760719 48.873873 30.743231 -42.131158 -6.032496 1.376624 -43.002833 -1.599814
7.378752 40.486106 -13.943710 173.879117 62.650422 173.565926 -1.082840 2.312048 -20.470014 -47.802561 -60.304526 67.579305 -23.336004 -0.350725 -9.202879 -88.919822 -49.607964 71.255867 -49.713125 -3.504661 6.090570 -4.105982 -68.639740 -8.417790 29.466744 -60.235732 -6.395062 0.411588 -56.678665 -17.868777 -49.841267 -65.240109 50.505663 30.610476 -41.775783 -5.312105 1.198812 -42.681722 -1.755104
7.292141 40.476975 -13.812555 173.850253 62.455625 173.396756 -1.035327 2.537848 -20.024595 -48.960958 -60.105917 68.506128 -24.100239 0.730548 -9.696558 -89.728250 -50.266702 72.011135 -50.111353 -3.930382 6.043537 -3.740271 -68.558475 -8.737947 29.376948 -60.349803 -6.484632 0.379906 -56.780274 -17.880132 -51.607209 -65.606180 52.196651 30.696882 -41.458104 -4.735174 0.999056 -42.443188 -1.948130
7.211917 40.463018 -13.683878 173.820760 62.285315 173.191700 -0.995658 2.771986 -19.578384 -49.970163 -59.894161 69.338735 -24.898978 1.885832 -10.233573 -90.413393 -50.832467 72.698799 -50.503730 -4.350490 6.064028 -3.438445 -68.502651 -8.983370 29.269177 -60.474024 -6.556767 0.313993 -56.890182 -17.934297 -53.364709 -65.865645 53.918241 30.900838 -41.124559 -4.244676 0.787008 -42.207233 -2.153094
7.128487 40.447883 -13.556104 173.769493 62.103256 172.976726 -0.963754 3.006488 -19.116043 -50.881201 -59.713960 70.056055 -25.702024 3.124307 -10.788272 -90.965026 -51.405773 73.323256 -50.983226 -4.756480 6.107449 -3.131936 -68.410690 -9.249743 29.140951 -60.593012 -6.636389 0.263998 -56.993001 -17.967958 -55.146654 -66.030123 55.691583 31.285593 -40.801419 -3.902717 0.595075 -42.006223 -2.329367
7.045106 40.431942 -13.425270 173.699729 61.943348 172.732684 -0.933065 3.241648 -18.674398 -51.683382 -59.506705 70.700094 -26.471897 4.463805 -11.405223 -91.471785 -51.956750 73.919886 -51.726129 -5.139967 6.298253 -2.875048 -68.355509 -9.473473 29.049945 -60.693266 -6.695768 0.220026 -57.080144 -17.991268 -56.925887 -66.170046 57.470953 31.713132 -40.473047 -3.597288 0.368208 -41.807919 -2.550799
6.970130 40.419659 -13.278440 173.697093 61.809858 172.547135 -0.868363 3.501340 -18.256916 -52.407669 -59.315262 71.273031 -27.225105 5.913201 -12.041630 -91.930378 -52.467013 74.461821 -52.712231 -5.495740 6.555797 -2.602488 -68.389134 -9.617717 29.077212 -60.705936 -6.797194 0.153473 -57.100883 -18.027094 -58.663764 -66.286720 59.298097 32.155930 -40.120173 -3.347806 0.180311 -41.588049 -2.705289
